<?xml version="1.0" encoding="UTF-8" standalone="no"?>
<!-- Created with Inkscape (http://www.inkscape.org/) -->

<svg
   width="280mm"
   height="160mm"
   viewBox="0 0 280 160"
   version="1.1"
   id="svg1"
   xml:space="preserve"
   xmlns="http://www.w3.org/2000/svg"
   xmlns:svg="http://www.w3.org/2000/svg"><defs
     id="defs1" /><g
     id="layer1"><g
       id="g1"><path
         d="m 15.784566,37.371879 c -0.616177,0 -1.208464,0.01098 -1.777669,0.03307 -0.569205,0.02209 -1.115298,0.05504 -1.63866,0.09973 -0.523361,0.04469 -1.024105,0.100659 -1.50275,0.168466 -0.478646,0.06781 -0.9348848,0.147308 -1.3699426,0.238745 -0.4350577,0.09144 -0.8486697,0.194994 -1.2412679,0.310575 -0.3925981,0.115581 -0.7644274,0.2432 -1.1156941,0.383439 -0.3512668,0.14024 -0.6821576,0.292958 -0.9932211,0.45837 -0.3110634,0.165412 -0.6023769,0.343752 -0.8743652,0.534851 -0.1359941,0.09555 -0.2668208,0.194555 -0.3932577,0.296623 -0.1264368,0.102068 -0.2483317,0.207093 -0.3653523,0.315743 -0.1170207,0.10865 -0.229185,0.2206 -0.3369304,0.335897 -0.1077454,0.115296 -0.2109306,0.234043 -0.3095418,0.35605 -0.098611,0.122008 -0.1930521,0.247422 -0.2826701,0.376205 -0.089618,0.128782 -0.1745157,0.260736 -0.2552816,0.396358 -0.080766,0.135622 -0.1573887,0.27502 -0.2294433,0.417546 -0.072055,0.142525 -0.1396039,0.288206 -0.2030884,0.437699 -0.126969,0.298987 -0.2371946,0.612233 -0.3307292,0.939478 -0.093534,0.327244 -0.1702821,0.668727 -0.2315104,1.024743 -0.061228,0.356016 -0.1068925,0.726259 -0.1369425,1.11156 -0.03005,0.385302 -0.044442,0.785343 -0.044442,1.200444 v 4.356323 c -5e-7,0.03304 0.00676,0.06439 0.01912,0.09302 0.012361,0.02863 0.03009,0.05431 0.052193,0.07596 0.022103,0.02165 0.048289,0.03905 0.077515,0.05116 0.029225,0.01211 0.061356,0.01912 0.095085,0.01912 H 20.954277 c 0.03373,0 0.06586,-0.007 0.09508,-0.01912 0.02922,-0.01211 0.05541,-0.02951 0.07751,-0.05116 0.0221,-0.02165 0.04035,-0.04733 0.05271,-0.07596 0.01236,-0.02863 0.01912,-0.05998 0.01912,-0.09302 l -0.0021,-4.174422 c 0,-0.304244 0.0079,-0.592927 0.02429,-0.866614 0.01639,-0.273687 0.04134,-0.532545 0.0739,-0.777213 0.03256,-0.244669 0.07293,-0.475275 0.12144,-0.692465 0.04851,-0.217189 0.104747,-0.421116 0.168982,-0.612365 0.06424,-0.19125 0.136263,-0.369554 0.216007,-0.536402 0.07974,-0.166847 0.167484,-0.322136 0.262517,-0.466121 0.09503,-0.143985 0.197373,-0.276797 0.307474,-0.399459 0.110102,-0.122661 0.228,-0.235087 0.35295,-0.337964 0.12495,-0.102877 0.257297,-0.196489 0.396875,-0.28112 0.139579,-0.08463 0.286296,-0.160485 0.440284,-0.228409 0.153987,-0.06793 0.314998,-0.127595 0.483174,-0.180351 0.168176,-0.05276 0.343405,-0.09833 0.525549,-0.13746 0.182145,-0.03913 0.371514,-0.07166 0.567408,-0.0987 0.195893,-0.02704 0.398293,-0.04863 0.607715,-0.06511 0.418843,-0.03297 0.864714,-0.04651 1.336352,-0.04651 H 63.05765 c 0.05463,0 0.103722,-0.02177 0.139526,-0.05684 0.0358,-0.03508 0.05788,-0.08342 0.05788,-0.136942 v -3.503662 c 0,-0.05352 -0.02207,-0.101867 -0.05788,-0.136943 -0.0358,-0.03508 -0.0849,-0.05684 -0.139526,-0.05684 z"
         style="fill:#ce6363;fill-opacity:1;fill-rule:evenodd;stroke-width:0.261563"
         id="path2" /><path
         id="path27-3"
         style="fill:#9c9cff;fill-opacity:1;fill-rule:evenodd;stroke-width:0.261563"
         d="m 2.1516584,26.840813 v -11.96364 c -2e-6,-0.132176 0.109366,-0.239321 0.244279,-0.239321 H 20.954284 c 0.134907,0 0.244264,0.107155 0.244244,0.239321 l -0.002,11.782104 c 0,4.867914 2.111851,5.726017 5.884961,5.726017 h 35.975945 c 0.109266,0 0.197848,0.08679 0.197848,0.193831 v 3.503844 c 0,0.107047 -0.08859,0.193829 -0.197848,0.193829 H 15.784691 c -9.8588486,0 -13.6330576,-2.794363 -13.6330576,-9.435985 z m 61.1035966,-0.420186 -10e-4,-11.928347 h 10e-4 z" /><path
         id="rect28"
         style="fill:#ce9cce;fill-rule:evenodd;stroke-width:0.268746"
         d="M 2.4253498,2.1600001 H 20.924716 c 0.144183,0 0.260259,0.1160755 0.260259,0.260259 V 13.826741 c 0,0.144184 -0.116076,0.260259 -0.260259,0.260259 H 2.4253498 c -0.1441835,0 -0.260259,-0.116075 -0.260259,-0.260259 V 2.4202591 c 0,-0.1441835 0.1160755,-0.260259 0.260259,-0.260259 z" /><path
         id="rect28-7"
         style="fill:#ce6363;fill-rule:evenodd;stroke-width:0.371274"
         d="m 2.358248,51.952999 h 18.63352 c 0.114465,0 0.206615,0.09215 0.206615,0.206615 v 40.159818 c 0,0.114465 -0.09215,0.206615 -0.206615,0.206615 H 2.358248 c -0.1144645,0 -0.2066146,-0.09215 -0.2066146,-0.206615 V 52.159614 c 0,-0.114465 0.09215,-0.206615 0.2066146,-0.206615 z" /><path
         id="rect28-7-3"
         style="fill:#e7a552;fill-rule:evenodd;stroke-width:0.151458"
         d="M 2.4813661,93.081001 H 20.868701 c 0.182657,0 0.329707,0.14705 0.329707,0.329708 v 6.092585 c 0,0.182658 -0.14705,0.329707 -0.329707,0.329707 H 2.4813661 c -0.1826579,0 -0.3297073,-0.147049 -0.3297073,-0.329707 v -6.092585 c 0,-0.182658 0.1470494,-0.329708 0.3297073,-0.329708 z" /><path
         id="rect28-7-3-4"
         style="fill:#ffce7b;fill-rule:evenodd;stroke-width:0.31476"
         d="M 2.4089076,100.38255 H 20.941159 c 0.142516,0 0.257249,0.11474 0.257249,0.25725 v 34.07318 c 0,0.14252 -0.114733,0.25725 -0.257249,0.25725 H 2.4089076 c -0.1425159,0 -0.2572488,-0.11473 -0.2572488,-0.25725 V 100.6398 c 0,-0.14251 0.1147329,-0.25725 0.2572488,-0.25725 z" /><path
         id="rect28-7-3-4-7"
         style="fill:#ce9cce;fill-rule:evenodd;stroke-width:0.224692"
         d="M 2.4410468,135.52159 H 20.90902 c 0.160321,0 0.289388,0.12907 0.289388,0.28939 v 21.72622 c 0,0.16032 -0.129067,0.28939 -0.289388,0.28939 H 2.4410468 c -0.160321,0 -0.289388,-0.12907 -0.289388,-0.28939 v -21.72622 c 0,-0.16032 0.129067,-0.28939 0.289388,-0.28939 z" /><path
         id="rect28-1"
         style="fill:#ce9cce;fill-rule:evenodd;stroke-width:0.153822"
         d="m 72.733396,32.385044 h 33.746484 c 0.0944,0 0.1704,0.07599 0.1704,0.170392 v 3.550701 c 0,0.0944 -0.076,0.170392 -0.1704,0.170392 H 72.733396 c -0.0944,0 -0.170392,-0.07599 -0.170392,-0.170392 v -3.550701 c 0,-0.0944 0.07599,-0.170392 0.170392,-0.170392 z" /><path
         id="rect28-1-3"
         style="fill:#ff9f00;fill-rule:evenodd;stroke-width:0.0702012"
         d="m 64.530393,32.345314 h 6.758988 c 0.0944,0 0.170392,0.07599 0.170392,0.170392 v 3.550701 c 0,0.0944 -0.07599,0.170392 -0.170392,0.170392 h -6.758988 c -0.0944,0 -0.170392,-0.07599 -0.170392,-0.170392 v -3.550701 c 0,-0.0944 0.076,-0.170392 0.170392,-0.170392 z" /><path
         id="rect28-1-3-5"
         style="fill:#ffce7b;fill-rule:evenodd;stroke-width:0.0702012"
         d="m 64.530393,37.371723 h 6.758988 c 0.0944,0 0.170392,0.07599 0.170392,0.170392 v 3.550701 c 0,0.0944 -0.07599,0.170392 -0.170392,0.170392 h -6.758988 c -0.0944,0 -0.170392,-0.07599 -0.170392,-0.170392 v -3.550701 c 0,-0.0944 0.076,-0.170392 0.170392,-0.170392 z" /><path
         id="rect28-1-0"
         style="fill:#ce9cce;fill-rule:evenodd;stroke-width:0.260825"
         d="m 107.93387,32.385044 h 97.63326 c 0.10242,0 0.18487,0.08245 0.18487,0.184872 v 3.521741 c 0,0.102419 -0.0825,0.184872 -0.18487,0.184872 h -97.63326 c -0.10242,0 -0.18487,-0.08245 -0.18487,-0.184872 v -3.521741 c 0,-0.102419 0.0825,-0.184872 0.18487,-0.184872 z" /><path
         id="rect28-1-0-5"
         style="fill:#ce9cce;fill-rule:evenodd;stroke-width:0.260823"
         d="m 107.93387,37.371723 h 97.63326 c 0.10242,0 0.18487,0.08245 0.18487,0.184872 v 3.521741 c 0,0.102419 -0.0825,0.184872 -0.18487,0.184872 h -97.63326 c -0.10242,0 -0.18487,-0.08245 -0.18487,-0.184872 v -3.521741 c 0,-0.102419 0.0825,-0.184872 0.18487,-0.184872 z" /><path
         id="rect28-1-0-1"
         style="fill:#ce6363;fill-rule:evenodd;stroke-width:0.193051"
         d="m 207.03692,37.371723 h 53.32019 c 0.10242,0 0.18487,0.08245 0.18487,0.184872 v 3.521741 c 0,0.102419 -0.0825,0.184872 -0.18487,0.184872 h -53.32019 c -0.10242,0 -0.18487,-0.08245 -0.18487,-0.184872 v -3.521741 c 0,-0.102419 0.0825,-0.184872 0.18487,-0.184872 z" /><path
         id="rect28-1-0-1-9"
         style="fill:#9c9cff;fill-rule:evenodd;stroke-width:0.193051"
         d="m 207.03692,32.385044 h 53.32019 c 0.10242,0 0.18487,0.08245 0.18487,0.184872 v 3.521741 c 0,0.102419 -0.0825,0.184872 -0.18487,0.184872 h -53.32019 c -0.10242,0 -0.18487,-0.08245 -0.18487,-0.184872 v -3.521741 c 0,-0.102419 0.0825,-0.184872 0.18487,-0.184872 z" /><path
         id="rect28-1-5"
         style="fill:#ffce7b;fill-rule:evenodd;stroke-width:0.108762"
         d="m 72.648189,37.371723 h 33.916901 c 0.0472,0 0.0852,0.03799 0.0852,0.08519 v 1.775129 c 0,0.04719 -0.038,0.08518 -0.0852,0.08518 H 72.648189 c -0.04719,0 -0.08518,-0.03799 -0.08518,-0.08518 v -1.775129 c 0,-0.04719 0.03799,-0.08519 0.08518,-0.08519 z" /><path
         id="rect28-1-0-96"
         style="fill:#9c9cff;fill-rule:evenodd;stroke-width:0.1078"
         d="m 261.82587,32.385044 h 16.37125 c 0.10242,0 0.18488,0.08245 0.18488,0.184872 v 3.521741 c 0,0.102419 -0.0825,0.184872 -0.18488,0.184872 h -16.37125 c -0.10242,0 -0.18487,-0.08245 -0.18487,-0.184872 v -3.521741 c 0,-0.102419 0.0824,-0.184872 0.18487,-0.184872 z" /><path
         id="rect28-1-0-9-8"
         style="fill:#ff9f00;fill-rule:evenodd;stroke-width:0.1078"
         d="m 261.82587,37.371723 h 16.37125 c 0.10242,0 0.18488,0.08245 0.18488,0.184872 v 3.521741 c 0,0.102419 -0.0825,0.184872 -0.18488,0.184872 h -16.37125 c -0.10242,0 -0.18487,-0.08245 -0.18487,-0.184872 v -3.521741 c 0,-0.102419 0.0824,-0.184872 0.18487,-0.184872 z" /><path
         d="m 7.8110001,12.984072 v -2.728516 h 0.3736206 v 2.413806 h 0.5162475 v 0.31471 z m 1.4472504,0.03101 q -0.1984375,0 -0.3240112,-0.09302 Q 8.8086656,12.827492 8.7482041,12.647658 8.689293,12.466274 8.689293,12.207375 v -1.16582 q 0,-0.182935 0.027905,-0.333313 0.027905,-0.150379 0.093018,-0.257349 0.065112,-0.10852 0.1767333,-0.167432 0.1131714,-0.05891 0.2821534,-0.05891 0.1565795,0 0.2619995,0.05426 0.1054199,0.05271 0.1689819,0.151928 0.063562,0.09922 0.089917,0.237195 0.027905,0.137976 0.027905,0.308508 v 0.342615 H 9.4535874 v -0.328662 q 0,-0.224792 -0.035657,-0.333313 -0.034107,-0.110071 -0.1472778,-0.110071 -0.1224732,0 -0.1643311,0.114722 -0.041858,0.114722 -0.041858,0.327112 v 1.232483 q 0,0.167431 0.017053,0.272851 0.017053,0.10542 0.058911,0.153479 0.043408,0.04806 0.1209229,0.04806 0.116272,0 0.153479,-0.111621 0.038757,-0.113171 0.038757,-0.365869 v -0.351916 h 0.3689697 v 0.348815 q 0,0.265101 -0.05581,0.443384 -0.05426,0.178284 -0.1782837,0.268201 -0.1240234,0.08837 -0.3302119,0.08837 z m 0.5914889,-0.03101 0.3999756,-2.728516 h 0.47594 l 0.430981,2.728516 H 10.80627 l -0.06976,-0.502295 h -0.465088 l -0.06356,0.502295 z M 10.310176,12.18102 h 0.384473 l -0.198437,-1.401465 h -0.0047 z m 0.931003,0.803052 v -2.728516 h 0.637171 q 0.21394,0 0.31936,0.08061 0.10542,0.08062 0.137976,0.238745 0.03256,0.15813 0.03256,0.390674 0,0.246497 -0.05116,0.389124 -0.04961,0.142627 -0.198437,0.187585 0.07286,0.0124 0.120923,0.06046 0.04961,0.04806 0.07751,0.145727 0.02946,0.09612 0.04186,0.254248 0.0124,0.15658 0.0124,0.389124 0,0.02015 0,0.08216 0,0.06046 0,0.141077 0.0015,0.08061 0.0031,0.15968 0.0031,0.07906 0.0062,0.136426 0.0047,0.05736 0.0093,0.07286 h -0.37207 q -0.0062,-0.01085 -0.0093,-0.07131 -0.0031,-0.06201 -0.0062,-0.15813 -0.0015,-0.09767 -0.0031,-0.217041 -0.0015,-0.120922 -0.0015,-0.251147 0,-0.130225 0,-0.254248 0,-0.136426 -0.0155,-0.207739 -0.0155,-0.07131 -0.06356,-0.09922 -0.04806,-0.02791 -0.144177,-0.03411 l -0.15968,-0.0078 v 1.300696 z m 0.375171,-1.58595 h 0.182935 q 0.08061,0 0.124023,-0.03411 0.04341,-0.03411 0.05891,-0.131775 0.0155,-0.09767 0.0155,-0.285254 v -0.0186 q 0,-0.156579 -0.0155,-0.238745 -0.01395,-0.08372 -0.05891,-0.113171 -0.04496,-0.03101 -0.139526,-0.03101 H 11.61635 Z m 1.413144,1.616956 q -0.168982,0 -0.279053,-0.05581 -0.10852,-0.05736 -0.170532,-0.162781 -0.06046,-0.10697 -0.08527,-0.254248 -0.02481,-0.148828 -0.02481,-0.334863 v -0.252698 h 0.356568 v 0.274402 q 0,0.251148 0.03876,0.359668 0.03876,0.10697 0.16123,0.10697 0.08372,0 0.124024,-0.03876 0.04031,-0.03876 0.05271,-0.124024 0.01395,-0.08682 0.01395,-0.226342 0,-0.167432 -0.06511,-0.296106 -0.06356,-0.130225 -0.189136,-0.258899 L 12.770589,11.55625 q -0.08061,-0.08217 -0.151929,-0.178284 -0.06976,-0.09612 -0.113171,-0.21549 -0.04341,-0.120923 -0.04341,-0.271302 0,-0.21084 0.04806,-0.359668 0.04806,-0.150378 0.168982,-0.229443 0.120923,-0.07906 0.336413,-0.07906 0.164331,0 0.268201,0.05426 0.10387,0.05271 0.15813,0.153479 0.05581,0.100769 0.07752,0.243396 0.0217,0.141077 0.0217,0.31781 v 0.165882 h -0.350367 v -0.189136 q 0,-0.142627 -0.01395,-0.237195 -0.0124,-0.09612 -0.04961,-0.142627 -0.03721,-0.04806 -0.113171,-0.04806 -0.07131,0 -0.116272,0.03256 -0.04341,0.03256 -0.06356,0.100769 -0.0186,0.06821 -0.0186,0.176734 0,0.09457 0.02325,0.16123 0.02481,0.06511 0.07286,0.124024 0.04961,0.05891 0.120923,0.134875 l 0.207739,0.223242 q 0.155029,0.164331 0.246496,0.353467 0.09147,0.187585 0.09147,0.427881 0,0.237195 -0.04961,0.403076 -0.04806,0.164331 -0.167431,0.251147 -0.119373,0.08527 -0.331763,0.08527 z m 1.181427,-0.03101 v -0.15658 q 0,-0.153479 0.02946,-0.289905 0.02946,-0.136425 0.09147,-0.279052 0.06356,-0.144178 0.165882,-0.31781 l 0.260449,-0.446485 q 0.03256,-0.05271 0.05426,-0.110071 0.0217,-0.05891 0.03566,-0.124023 0.0155,-0.06511 0.0217,-0.139526 0.0078,-0.07597 0.0078,-0.162781 0,-0.170532 -0.01705,-0.258899 -0.01705,-0.08992 -0.05271,-0.120923 -0.03411,-0.03256 -0.08837,-0.03256 -0.05426,0 -0.09302,0.03101 -0.03876,0.02946 -0.06046,0.124023 -0.02015,0.09302 -0.02015,0.282154 v 0.350366 h -0.359668 v -0.178284 q 0,-0.294556 0.03566,-0.502295 0.03566,-0.207739 0.151929,-0.31781 0.117822,-0.110071 0.362769,-0.110071 0.187585,0 0.294555,0.100769 0.108521,0.09922 0.153479,0.269751 0.04651,0.170533 0.04651,0.384473 0,0.130225 -0.02015,0.244946 -0.02015,0.113172 -0.05891,0.215491 -0.03721,0.102319 -0.09302,0.199988 l -0.249598,0.446484 q -0.06511,0.117822 -0.113171,0.213941 -0.04806,0.09457 -0.07906,0.187585 -0.02946,0.09302 -0.04496,0.207739 h 0.612365 v 0.288355 z m 1.664292,0.03101 q -0.300757,0 -0.418579,-0.186036 -0.116272,-0.186035 -0.116272,-0.573608 v -0.15968 h 0.351916 v 0.16123 q 0,0.15813 0.0124,0.255799 0.0124,0.09612 0.05426,0.139526 0.04186,0.04341 0.127124,0.04341 0.08682,0 0.128674,-0.05116 0.04341,-0.05116 0.05736,-0.15813 0.0155,-0.106971 0.0155,-0.271302 0,-0.190686 -0.0217,-0.305407 -0.0217,-0.116272 -0.07752,-0.167432 -0.05581,-0.05116 -0.16123,-0.05116 h -0.09922 v -0.288354 h 0.09612 q 0.102319,0 0.15813,-0.04186 0.05736,-0.04186 0.08062,-0.142627 0.02325,-0.100769 0.02325,-0.275952 0,-0.164331 -0.02325,-0.249597 -0.02325,-0.08527 -0.06666,-0.116272 -0.04186,-0.03101 -0.10387,-0.03101 -0.06666,0 -0.108521,0.03721 -0.04186,0.03721 -0.06046,0.125574 -0.0186,0.08682 -0.0186,0.237195 v 0.07441 h -0.359668 v -0.08527 q 0,-0.361218 0.119372,-0.534851 0.120923,-0.175183 0.42168,-0.175183 0.297656,0 0.429431,0.179834 0.133325,0.179834 0.133325,0.537952 0,0.220142 -0.06511,0.379822 -0.06511,0.15813 -0.21239,0.21239 0.10542,0.04806 0.167431,0.147278 0.06201,0.09767 0.08837,0.234094 0.02791,0.136426 0.02791,0.300757 0,0.395324 -0.131775,0.596863 -0.131774,0.201538 -0.448034,0.201538 z m 0.788376,-0.03101 v -0.15658 q 0,-0.153479 0.02946,-0.289905 0.02945,-0.136425 0.09147,-0.279052 0.06356,-0.144178 0.165881,-0.31781 l 0.26045,-0.446485 q 0.03256,-0.05271 0.05426,-0.110071 0.0217,-0.05891 0.03566,-0.124023 0.0155,-0.06511 0.02171,-0.139526 0.0078,-0.07597 0.0078,-0.162781 0,-0.170532 -0.01705,-0.258899 -0.01705,-0.08992 -0.05271,-0.120923 -0.03411,-0.03256 -0.08837,-0.03256 -0.05426,0 -0.09302,0.03101 -0.03876,0.02946 -0.06046,0.124023 -0.02015,0.09302 -0.02015,0.282154 v 0.350366 h -0.359668 v -0.178284 q 0,-0.294556 0.03566,-0.502295 0.03566,-0.207739 0.151929,-0.31781 0.117822,-0.110071 0.362768,-0.110071 0.187586,0 0.294556,0.100769 0.108521,0.09922 0.153479,0.269751 0.04651,0.170533 0.04651,0.384473 0,0.130225 -0.02015,0.244946 -0.02015,0.113172 -0.05891,0.215491 -0.03721,0.102319 -0.09302,0.199988 l -0.249597,0.446484 q -0.06511,0.117822 -0.113171,0.213941 -0.04806,0.09457 -0.07906,0.187585 -0.02946,0.09302 -0.04496,0.207739 h 0.612366 v 0.288355 z m 1.639487,0.03101 q -0.170532,0 -0.282154,-0.06666 -0.111621,-0.06666 -0.167431,-0.218591 -0.05426,-0.151929 -0.05426,-0.406177 v -0.139526 h 0.344165 v 0.06821 q 0,0.184485 0.01395,0.280603 0.01395,0.09612 0.05426,0.130225 0.04186,0.03411 0.117823,0.03411 0.08372,0 0.116272,-0.05116 0.03411,-0.05271 0.03876,-0.161231 0.0062,-0.11007 0.0062,-0.280603 v -0.316259 q -0.03876,0.02791 -0.103869,0.04806 -0.06511,0.02015 -0.148829,0.02015 -0.189135,0 -0.294555,-0.09302 -0.10387,-0.09302 -0.145728,-0.274402 -0.04031,-0.181384 -0.04031,-0.446484 v -0.09457 q 0,-0.189136 0.02015,-0.339514 0.0217,-0.151929 0.07906,-0.26045 0.05736,-0.10852 0.164331,-0.165881 0.108521,-0.05736 0.282154,-0.05736 0.179834,0 0.289905,0.05581 0.11007,0.05426 0.165881,0.15968 0.05736,0.10542 0.07751,0.260449 0.02015,0.153479 0.02015,0.350366 v 1.116211 q 0,0.302307 -0.05271,0.489893 -0.05116,0.186035 -0.173632,0.272851 -0.120923,0.08527 -0.327112,0.08527 z m -0.0047,-1.361158 q 0.05426,0 0.09457,-0.0124 0.04031,-0.0124 0.06511,-0.0279 0.02481,-0.0155 0.03256,-0.02326 v -0.623217 q 0,-0.217041 -0.03566,-0.31781 -0.03566,-0.100769 -0.148828,-0.100769 -0.08216,0 -0.124023,0.04341 -0.04031,0.04341 -0.05581,0.134875 -0.01395,0.09147 -0.01395,0.235645 v 0.226343 q 0,0.168981 0.0124,0.271301 0.01395,0.102319 0.05426,0.148828 0.04031,0.04496 0.119373,0.04496 z m 1.268967,1.361158 q -0.187586,0 -0.300757,-0.06976 -0.111621,-0.06976 -0.162781,-0.192236 -0.04961,-0.122473 -0.04961,-0.282153 v -0.324011 h 0.355017 v 0.300756 q 0,0.106971 0.02946,0.178284 0.02946,0.07131 0.128675,0.07131 0.08837,0 0.124023,-0.06511 0.03566,-0.06666 0.03566,-0.201538 v -0.748791 q 0,-0.144178 -0.03101,-0.226343 -0.02946,-0.08217 -0.125574,-0.08217 -0.07751,0 -0.122473,0.06821 -0.04496,0.06821 -0.04496,0.20929 l -0.327112,-0.02946 v -1.365808 h 0.942578 v 0.334863 h -0.598413 v 0.590662 q 0.0279,-0.05426 0.100769,-0.08682 0.07286,-0.03256 0.156579,-0.03256 0.151929,0 0.241846,0.08682 0.08992,0.08527 0.128674,0.280603 0.04031,0.193787 0.04031,0.519348 v 0.05736 q 0,0.254248 -0.0155,0.443384 -0.01395,0.189135 -0.06511,0.316259 -0.04961,0.125574 -0.15503,0.187586 -0.103869,0.06201 -0.285253,0.06201 z"
         id="text1"
         style="font-size:3.175px;line-height:1.25;font-family:Antonio;-inkscape-font-specification:'Antonio, @wght=624';font-variation-settings:'wght' 624;letter-spacing:-0.185208px;stroke-width:0.162943"
         aria-label="LCARS 23295" /><path
         d="m 11.431005,18.497078 q -0.223243,0 -0.344166,-0.09147 -0.119372,-0.09147 -0.165881,-0.26355 Q 10.876,17.969978 10.876,17.728132 v -1.303796 q 0,-0.235645 0.04806,-0.395325 0.04806,-0.16123 0.167431,-0.241846 0.120923,-0.08216 0.339515,-0.08216 0.218591,0 0.337963,0.08216 0.119373,0.08062 0.164331,0.241846 0.04651,0.15968 0.04651,0.395325 v 1.303796 q 0,0.181385 -0.0248,0.324011 -0.02326,0.142627 -0.08217,0.241846 -0.05891,0.09922 -0.167432,0.151929 -0.10697,0.05116 -0.274401,0.05116 z m -0.0016,-0.319361 q 0.04496,0 0.07906,-0.0124 0.03411,-0.01395 0.05736,-0.05736 0.02481,-0.04496 0.03566,-0.133325 0.0124,-0.08837 0.0124,-0.238745 v -1.328601 q 0,-0.176734 -0.02325,-0.257349 -0.02326,-0.08061 -0.06511,-0.102319 -0.04186,-0.02325 -0.09612,-0.02325 -0.05271,0 -0.09612,0.0217 -0.04186,0.02015 -0.06666,0.100769 -0.0248,0.08062 -0.0248,0.258899 v 1.330152 q 0,0.151928 0.01085,0.240295 0.01085,0.08837 0.03411,0.131775 0.0248,0.04341 0.05891,0.05736 0.03566,0.0124 0.08372,0.0124 z m 1.039524,0.286804 v -2.251025 q -0.03721,0.04341 -0.10387,0.07752 -0.06511,0.03256 -0.137976,0.05116 -0.07286,0.01705 -0.130225,0.01705 V 16.07552 q 0.08217,-0.0124 0.173633,-0.05271 0.09147,-0.04186 0.168982,-0.113171 0.07906,-0.07131 0.122473,-0.173633 h 0.279053 v 2.728515 z m 0.630246,-1.094506 v -0.251148 h 0.722436 v 0.251148 z m 1.013168,1.094506 v -0.156579 q 0,-0.153479 0.02946,-0.289905 0.02946,-0.136426 0.09147,-0.279053 0.06356,-0.144177 0.165881,-0.31781 l 0.26045,-0.446484 q 0.03256,-0.05271 0.05426,-0.110071 0.0217,-0.05891 0.03566,-0.124023 0.0155,-0.06511 0.0217,-0.139527 0.0078,-0.07596 0.0078,-0.16278 0,-0.170533 -0.01705,-0.258899 -0.01705,-0.08992 -0.05271,-0.120923 -0.03411,-0.03256 -0.08837,-0.03256 -0.05426,0 -0.09302,0.03101 -0.03876,0.02946 -0.06046,0.124024 -0.02015,0.09302 -0.02015,0.282153 v 0.350366 h -0.359668 v -0.178283 q 0,-0.294556 0.03566,-0.502295 0.03566,-0.207739 0.151929,-0.31781 0.117822,-0.110071 0.362769,-0.110071 0.187585,0 0.294555,0.100769 0.108521,0.09922 0.153479,0.269751 0.04651,0.170532 0.04651,0.384473 0,0.130224 -0.02015,0.244946 -0.02015,0.113171 -0.05891,0.215491 -0.03721,0.102319 -0.09302,0.199987 l -0.249598,0.446485 q -0.06511,0.117822 -0.113171,0.21394 -0.04806,0.09457 -0.07906,0.187586 -0.02946,0.09302 -0.04496,0.207739 h 0.612365 v 0.288354 z m 1.664292,0.03101 q -0.300757,0 -0.418579,-0.186035 -0.116272,-0.186035 -0.116272,-0.573608 v -0.15968 H 15.5937 v 0.16123 q 0,0.15813 0.0124,0.255798 0.0124,0.09612 0.05426,0.139527 0.04186,0.04341 0.127124,0.04341 0.08682,0 0.128674,-0.05116 0.04341,-0.05116 0.05736,-0.15813 0.0155,-0.10697 0.0155,-0.271301 0,-0.190686 -0.0217,-0.305408 -0.0217,-0.116272 -0.07752,-0.167431 -0.05581,-0.05116 -0.16123,-0.05116 h -0.09922 v -0.288354 h 0.09612 q 0.10232,0 0.15813,-0.04186 0.05736,-0.04186 0.08061,-0.142627 0.02326,-0.100769 0.02326,-0.275952 0,-0.164331 -0.02326,-0.249598 -0.02325,-0.08527 -0.06666,-0.116272 -0.04186,-0.03101 -0.10387,-0.03101 -0.06666,0 -0.10852,0.03721 -0.04186,0.03721 -0.06046,0.125573 -0.0186,0.08682 -0.0186,0.237195 v 0.07441 H 15.24643 v -0.08527 q 0,-0.361218 0.119372,-0.534851 0.120923,-0.175183 0.42168,-0.175183 0.297656,0 0.429431,0.179834 0.133325,0.179834 0.133325,0.537952 0,0.220141 -0.06511,0.379821 -0.06511,0.15813 -0.21239,0.212391 0.10542,0.04806 0.167431,0.147277 0.06201,0.09767 0.08837,0.234095 0.02791,0.136425 0.02791,0.300756 0,0.395325 -0.131774,0.596863 -0.131775,0.201538 -0.448035,0.201538 z m 1.247262,0 q -0.187585,0 -0.300756,-0.06976 -0.111621,-0.06976 -0.162781,-0.192236 -0.04961,-0.122473 -0.04961,-0.282154 V 17.62737 h 0.355017 v 0.300757 q 0,0.10697 0.02945,0.178284 0.02946,0.07131 0.128674,0.07131 0.08837,0 0.124024,-0.06511 0.03566,-0.06666 0.03566,-0.201538 v -0.748792 q 0,-0.144177 -0.03101,-0.226342 -0.02946,-0.08217 -0.125574,-0.08217 -0.07751,0 -0.122473,0.06821 -0.04496,0.06821 -0.04496,0.209289 l -0.327111,-0.02945 V 15.73601 h 0.942578 v 0.334863 h -0.598413 v 0.590662 q 0.02791,-0.05426 0.100769,-0.08682 0.07286,-0.03256 0.156579,-0.03256 0.151929,0 0.241846,0.08682 0.08992,0.08527 0.128674,0.280603 0.04031,0.193786 0.04031,0.519348 v 0.05736 q 0,0.254248 -0.0155,0.443383 -0.01395,0.189136 -0.06511,0.31626 -0.04961,0.125574 -0.15503,0.187586 -0.103869,0.06201 -0.285254,0.06201 z m 1.253464,0.0016 q -0.179834,0 -0.293005,-0.05581 -0.113172,-0.05736 -0.175183,-0.164331 -0.06046,-0.10697 -0.08372,-0.258899 -0.0217,-0.153479 -0.0217,-0.347266 v -1.133264 q 0,-0.303857 0.05581,-0.486792 0.05581,-0.182934 0.181385,-0.26355 0.125573,-0.08216 0.331762,-0.08216 0.176734,0 0.286805,0.06666 0.11007,0.06666 0.16123,0.220141 0.05116,0.151929 0.05271,0.406177 v 0.136426 H 18.43084 v -0.06821 q 0,-0.178284 -0.0124,-0.272852 -0.01085,-0.09612 -0.04961,-0.131775 -0.03876,-0.03566 -0.117822,-0.03566 -0.08372,0 -0.122473,0.04806 -0.03721,0.04806 -0.04806,0.155029 -0.01085,0.10542 -0.01085,0.282153 v 0.356568 q 0.04341,-0.04806 0.119373,-0.07751 0.07596,-0.02946 0.165881,-0.03101 0.187585,-0.0015 0.288354,0.08992 0.100769,0.09147 0.139527,0.274402 0.04031,0.181384 0.04031,0.452686 v 0.122473 q 0,0.251147 -0.04186,0.430981 -0.04186,0.178284 -0.15968,0.272852 -0.116272,0.09457 -0.344165,0.09457 z m -0.0047,-0.324012 q 0.08217,0 0.124024,-0.03721 0.04341,-0.03721 0.05736,-0.122473 0.0155,-0.08682 0.0155,-0.234094 v -0.234094 q 0,-0.172083 -0.01395,-0.275952 -0.01395,-0.10387 -0.05581,-0.150379 -0.04031,-0.04651 -0.119372,-0.04651 -0.05736,0 -0.10387,0.02015 -0.04651,0.0186 -0.07441,0.04496 -0.02791,0.02635 -0.03256,0.04806 v 0.567407 q 0,0.145727 0.01705,0.238745 0.0186,0.09302 0.06201,0.137976 0.04496,0.04341 0.124023,0.04341 z m 1.273618,0.291455 V 17.968481 H 18.885855 V 17.69873 l 0.603064,-1.962671 h 0.392224 v 1.933215 h 0.217041 v 0.299207 h -0.217041 v 0.496093 z m -0.364318,-0.7953 h 0.364318 V 16.28946 Z"
         id="text1-1"
         style="font-size:3.175px;line-height:1.25;font-family:Antonio;-inkscape-font-specification:'Antonio, @wght=624';font-variation-settings:'wght' 624;letter-spacing:-0.185208px;stroke-width:0.162943"
         aria-label="01-23564" /><path
         d="m 10.282961,50.303079 q -0.223242,0 -0.3441652,-0.09147 Q 9.8194233,50.120145 9.7729145,49.948062 9.727956,49.77598 9.727956,49.534134 v -1.303796 q 0,-0.235645 0.048059,-0.395325 0.048059,-0.161231 0.1674316,-0.241846 0.1209234,-0.08217 0.3395144,-0.08217 0.218591,0 0.337964,0.08217 0.119372,0.08062 0.164331,0.241846 0.04651,0.15968 0.04651,0.395325 v 1.303796 q 0,0.181384 -0.02481,0.324011 -0.02325,0.142627 -0.08217,0.241846 -0.05891,0.09922 -0.167431,0.151929 -0.10697,0.05116 -0.274402,0.05116 z m -0.0015,-0.31936 q 0.04496,0 0.07906,-0.0124 0.03411,-0.01395 0.05736,-0.05736 0.02481,-0.04496 0.03566,-0.133325 0.0124,-0.08837 0.0124,-0.238746 v -1.328601 q 0,-0.176733 -0.02325,-0.257348 -0.02325,-0.08062 -0.06511,-0.10232 -0.04186,-0.02325 -0.09612,-0.02325 -0.05271,0 -0.09612,0.0217 -0.04186,0.02015 -0.06666,0.100769 -0.0248,0.08062 -0.0248,0.258899 v 1.330151 q 0,0.151929 0.01085,0.240296 0.01085,0.08837 0.03411,0.131775 0.0248,0.04341 0.05891,0.05736 0.03566,0.0124 0.08372,0.0124 z m 0.803879,0.286804 v -0.15658 q 0,-0.153479 0.02945,-0.289904 0.02946,-0.136426 0.09147,-0.279053 0.06356,-0.144177 0.165882,-0.31781 l 0.260449,-0.446484 q 0.03256,-0.05271 0.05426,-0.110071 0.0217,-0.05891 0.03566,-0.124024 0.0155,-0.06511 0.0217,-0.139526 0.0078,-0.07596 0.0078,-0.162781 0,-0.170532 -0.01705,-0.258899 -0.01705,-0.08992 -0.05271,-0.120923 -0.03411,-0.03256 -0.08837,-0.03256 -0.05426,0 -0.09302,0.03101 -0.03876,0.02946 -0.06046,0.124024 -0.02015,0.09302 -0.02015,0.282153 v 0.350366 h -0.359668 v -0.178284 q 0,-0.294555 0.03566,-0.502295 0.03566,-0.207739 0.151928,-0.31781 0.117823,-0.11007 0.362769,-0.11007 0.187585,0 0.294556,0.100769 0.10852,0.09922 0.153479,0.269751 0.04651,0.170532 0.04651,0.384472 0,0.130225 -0.02015,0.244947 -0.02015,0.113171 -0.05891,0.21549 -0.03721,0.10232 -0.09302,0.199988 l -0.249597,0.446484 q -0.06511,0.117823 -0.113172,0.213941 -0.04806,0.09457 -0.07906,0.187585 -0.02946,0.09302 -0.04496,0.20774 h 0.612366 v 0.288354 z m 1.103085,-1.094507 v -0.251147 h 0.722436 v 0.251147 z m 1.484457,1.127063 q -0.223242,0 -0.344165,-0.09147 -0.119372,-0.09147 -0.165881,-0.26355 -0.04496,-0.172082 -0.04496,-0.413928 v -1.303796 q 0,-0.235645 0.04806,-0.395325 0.04806,-0.161231 0.167431,-0.241846 0.120923,-0.08217 0.339514,-0.08217 0.218592,0 0.337964,0.08217 0.119373,0.08062 0.164331,0.241846 0.04651,0.15968 0.04651,0.395325 v 1.303796 q 0,0.181384 -0.02481,0.324011 -0.02325,0.142627 -0.08216,0.241846 -0.05891,0.09922 -0.167432,0.151929 -0.10697,0.05116 -0.274402,0.05116 z m -0.0015,-0.31936 q 0.04496,0 0.07906,-0.0124 0.03411,-0.01395 0.05736,-0.05736 0.02481,-0.04496 0.03566,-0.133325 0.0124,-0.08837 0.0124,-0.238746 v -1.328601 q 0,-0.176733 -0.02325,-0.257348 -0.02326,-0.08062 -0.06511,-0.10232 -0.04186,-0.02325 -0.09612,-0.02325 -0.05271,0 -0.09612,0.0217 -0.04186,0.02015 -0.06666,0.100769 -0.0248,0.08062 -0.0248,0.258899 v 1.330151 q 0,0.151929 0.01085,0.240296 0.01085,0.08837 0.03411,0.131775 0.0248,0.04341 0.05891,0.05736 0.03566,0.0124 0.08372,0.0124 z m 1.340281,0.286804 v -0.496094 h -0.660425 v -0.269751 l 0.603064,-1.962671 h 0.392224 v 1.933216 h 0.217041 v 0.299206 h -0.217041 v 0.496094 z m -0.364319,-0.7953 h 0.364319 v -1.379761 z m 1.28602,0.7953 v -2.251025 q -0.03721,0.04341 -0.10387,0.07751 -0.06511,0.03256 -0.137976,0.05116 -0.07286,0.01705 -0.130225,0.01705 v -0.283703 q 0.08217,-0.0124 0.173633,-0.05271 0.09147,-0.04186 0.168982,-0.113172 0.07906,-0.07131 0.122473,-0.173633 h 0.279053 v 2.728516 z m 1.166647,0.03101 q -0.170532,0 -0.282153,-0.06666 -0.111621,-0.06666 -0.167432,-0.218591 -0.05426,-0.151929 -0.05426,-0.406177 v -0.139526 h 0.344165 v 0.06821 q 0,0.184485 0.01395,0.280603 0.01395,0.09612 0.05426,0.130224 0.04186,0.03411 0.117822,0.03411 0.08372,0 0.116272,-0.05116 0.03411,-0.05271 0.03876,-0.16123 0.0062,-0.110071 0.0062,-0.280603 v -0.31626 q -0.03876,0.0279 -0.10387,0.04806 -0.06511,0.02015 -0.148828,0.02015 -0.189136,0 -0.294556,-0.09302 -0.103869,-0.09302 -0.145727,-0.274402 -0.04031,-0.181384 -0.04031,-0.446484 v -0.09457 q 0,-0.189136 0.02015,-0.339514 0.0217,-0.151929 0.07906,-0.260449 0.05736,-0.108521 0.164331,-0.165882 0.10852,-0.05736 0.282153,-0.05736 0.179834,0 0.289905,0.05581 0.110071,0.05426 0.165881,0.15968 0.05736,0.10542 0.07752,0.26045 0.02015,0.153479 0.02015,0.350366 v 1.116211 q 0,0.302307 -0.05271,0.489892 -0.05116,0.186035 -0.173633,0.272852 -0.120923,0.08527 -0.327112,0.08527 z m -0.0047,-1.361157 q 0.05426,0 0.09457,-0.0124 0.04031,-0.0124 0.06511,-0.0279 0.0248,-0.0155 0.03256,-0.02325 v -0.623218 q 0,-0.217041 -0.03566,-0.31781 -0.03566,-0.100769 -0.148828,-0.100769 -0.08217,0 -0.124024,0.04341 -0.04031,0.04341 -0.05581,0.134876 -0.01395,0.09147 -0.01395,0.235644 v 0.226343 q 0,0.168982 0.0124,0.271301 0.01395,0.102319 0.05426,0.148828 0.04031,0.04496 0.119372,0.04496 z m 1.299973,1.362707 q -0.179834,0 -0.293005,-0.05581 -0.113171,-0.05736 -0.175183,-0.164331 -0.06046,-0.106971 -0.08372,-0.258899 -0.0217,-0.153479 -0.0217,-0.347266 v -1.133264 q 0,-0.303857 0.05581,-0.486792 0.05581,-0.182935 0.181385,-0.26355 0.125573,-0.08217 0.331762,-0.08217 0.176734,0 0.286805,0.06666 0.11007,0.06666 0.16123,0.220142 0.05116,0.151929 0.05271,0.406177 v 0.136425 h -0.342615 v -0.06821 q 0,-0.178283 -0.0124,-0.272851 -0.01085,-0.09612 -0.04961,-0.131775 -0.03876,-0.03566 -0.117823,-0.03566 -0.08371,0 -0.122473,0.04806 -0.03721,0.04806 -0.04806,0.15503 -0.01085,0.10542 -0.01085,0.282153 v 0.356567 q 0.04341,-0.04806 0.119373,-0.07751 0.07596,-0.02946 0.165881,-0.03101 0.187585,-0.0016 0.288354,0.08992 0.10077,0.09147 0.139527,0.274402 0.04031,0.181384 0.04031,0.452685 v 0.122473 q 0,0.251148 -0.04186,0.430982 -0.04186,0.178283 -0.159681,0.272851 -0.116272,0.09457 -0.344165,0.09457 z m -0.0047,-0.324011 q 0.08217,0 0.124024,-0.03721 0.04341,-0.03721 0.05736,-0.122473 0.0155,-0.08682 0.0155,-0.234094 V 49.3512 q 0,-0.172082 -0.01395,-0.275952 -0.01395,-0.103869 -0.05581,-0.150378 -0.04031,-0.04651 -0.119372,-0.04651 -0.05736,0 -0.10387,0.02015 -0.04651,0.0186 -0.07441,0.04496 -0.02791,0.02636 -0.03256,0.04806 v 0.567408 q 0,0.145727 0.01705,0.238745 0.0186,0.09302 0.06201,0.137976 0.04496,0.04341 0.124023,0.04341 z m 1.154245,0.322461 q -0.170532,0 -0.282153,-0.06666 -0.111621,-0.06666 -0.167432,-0.218591 -0.05426,-0.151929 -0.05426,-0.406177 v -0.139526 h 0.344165 v 0.06821 q 0,0.184485 0.01395,0.280603 0.01395,0.09612 0.05426,0.130224 0.04186,0.03411 0.117822,0.03411 0.08372,0 0.116272,-0.05116 0.03411,-0.05271 0.03876,-0.16123 0.0062,-0.110071 0.0062,-0.280603 v -0.31626 q -0.03876,0.0279 -0.10387,0.04806 -0.06511,0.02015 -0.148828,0.02015 -0.189136,0 -0.294556,-0.09302 -0.103869,-0.09302 -0.145727,-0.274402 -0.04031,-0.181384 -0.04031,-0.446484 v -0.09457 q 0,-0.189136 0.02015,-0.339514 0.0217,-0.151929 0.07906,-0.260449 0.05736,-0.108521 0.164331,-0.165882 0.108521,-0.05736 0.282153,-0.05736 0.179834,0 0.289905,0.05581 0.110071,0.05426 0.165882,0.15968 0.05736,0.10542 0.07751,0.26045 0.02015,0.153479 0.02015,0.350366 v 1.116211 q 0,0.302307 -0.05271,0.489892 -0.05116,0.186035 -0.173633,0.272852 -0.120923,0.08527 -0.327112,0.08527 z m -0.0047,-1.361157 q 0.05426,0 0.09457,-0.0124 0.04031,-0.0124 0.06511,-0.0279 0.0248,-0.0155 0.03256,-0.02325 v -0.623218 q 0,-0.217041 -0.03566,-0.31781 -0.03566,-0.100769 -0.148828,-0.100769 -0.08216,0 -0.124023,0.04341 -0.04031,0.04341 -0.05581,0.134876 -0.01395,0.09147 -0.01395,0.235644 v 0.226343 q 0,0.168982 0.0124,0.271301 0.01395,0.102319 0.05426,0.148828 0.04031,0.04496 0.119373,0.04496 z"
         id="text1-1-5"
         style="font-size:3.175px;line-height:1.25;font-family:Antonio;-inkscape-font-specification:'Antonio, @wght=624';font-variation-settings:'wght' 624;letter-spacing:-0.185208px;stroke-width:0.162943"
         aria-label="02-041969" /><path
         d="m 11.61859,91.463075 q -0.223242,0 -0.344165,-0.09147 -0.119372,-0.09147 -0.165881,-0.26355 -0.04496,-0.172082 -0.04496,-0.413928 v -1.303796 q 0,-0.235645 0.04806,-0.395325 0.04806,-0.161231 0.167431,-0.241846 0.120923,-0.08217 0.339514,-0.08217 0.218592,0 0.337964,0.08217 0.119373,0.08061 0.164331,0.241846 0.04651,0.15968 0.04651,0.395325 v 1.303796 q 0,0.181384 -0.02481,0.324011 -0.02325,0.142627 -0.08216,0.241846 -0.05891,0.09922 -0.167432,0.151929 -0.10697,0.05116 -0.274402,0.05116 z m -0.0015,-0.31936 q 0.04496,0 0.07906,-0.0124 0.03411,-0.01395 0.05736,-0.05736 0.02481,-0.04496 0.03566,-0.133325 0.0124,-0.08837 0.0124,-0.238746 V 89.37328 q 0,-0.176733 -0.02325,-0.257348 -0.02326,-0.08061 -0.06511,-0.10232 -0.04186,-0.02325 -0.09612,-0.02325 -0.05271,0 -0.09612,0.0217 -0.04186,0.02015 -0.06666,0.100769 -0.0248,0.08061 -0.0248,0.258899 v 1.330151 q 0,0.151929 0.01085,0.240296 0.01085,0.08837 0.03411,0.131775 0.02481,0.04341 0.05891,0.05736 0.03566,0.0124 0.08372,0.0124 z m 1.245713,0.31781 q -0.300757,0 -0.41858,-0.186035 -0.116272,-0.186035 -0.116272,-0.573609 v -0.15968 h 0.351917 v 0.161231 q 0,0.15813 0.0124,0.255798 0.0124,0.09612 0.05426,0.139526 0.04186,0.04341 0.127124,0.04341 0.08682,0 0.128674,-0.05116 0.04341,-0.05116 0.05736,-0.15813 0.0155,-0.10697 0.0155,-0.271301 0,-0.190686 -0.0217,-0.305408 -0.0217,-0.116272 -0.07752,-0.167432 -0.05581,-0.05116 -0.161231,-0.05116 h -0.09922 V 89.84922 h 0.09612 q 0.102319,0 0.15813,-0.04186 0.05736,-0.04186 0.08061,-0.142627 0.02325,-0.100769 0.02325,-0.275952 0,-0.164331 -0.02325,-0.249597 -0.02325,-0.08527 -0.06666,-0.116272 -0.04186,-0.03101 -0.103869,-0.03101 -0.06666,0 -0.108521,0.03721 -0.04186,0.03721 -0.06046,0.125574 -0.0186,0.08682 -0.0186,0.237195 v 0.07441 h -0.359668 v -0.08527 q 0,-0.361218 0.119373,-0.534851 0.120923,-0.175183 0.42168,-0.175183 0.297656,0 0.429431,0.179834 0.133325,0.179834 0.133325,0.537951 0,0.220142 -0.06511,0.379822 -0.06511,0.15813 -0.212391,0.21239 0.10542,0.04806 0.167432,0.147278 0.06201,0.09767 0.08837,0.234094 0.02791,0.136426 0.02791,0.300757 0,0.395325 -0.131775,0.596863 -0.131775,0.201538 -0.448034,0.201538 z m 0.669003,-1.125513 v -0.251147 h 0.722436 v 0.251147 z m 1.248813,1.094507 v -2.251025 q -0.03721,0.04341 -0.10387,0.07751 -0.06511,0.03256 -0.137976,0.05116 -0.07286,0.01705 -0.130224,0.01705 v -0.283703 q 0.08216,-0.0124 0.173632,-0.05271 0.09147,-0.04186 0.168982,-0.113172 0.07906,-0.07131 0.122473,-0.173632 h 0.279053 v 2.728515 z m 0.814731,0 q 0.02791,-0.37362 0.09302,-0.702283 0.06511,-0.330212 0.148828,-0.617016 0.08527,-0.286804 0.168982,-0.531751 0.07441,-0.243396 0.128674,-0.389123 0.05581,-0.145728 0.06201,-0.167432 h -0.776697 v -0.32091 h 1.153418 v 0.26975 q -0.0093,0.08992 -0.09302,0.293006 -0.08216,0.201538 -0.170532,0.497644 -0.06821,0.223242 -0.131775,0.488342 -0.06356,0.26355 -0.111621,0.561206 -0.04651,0.296106 -0.06821,0.618567 z m 1.628635,0.03256 q -0.223243,0 -0.344165,-0.09147 -0.119373,-0.09147 -0.165882,-0.26355 -0.04496,-0.172082 -0.04496,-0.413928 v -1.303796 q 0,-0.235645 0.04806,-0.395325 0.04806,-0.161231 0.167431,-0.241846 0.120923,-0.08217 0.339515,-0.08217 0.218591,0 0.337964,0.08217 0.119372,0.08061 0.164331,0.241846 0.04651,0.15968 0.04651,0.395325 v 1.303796 q 0,0.181384 -0.0248,0.324011 -0.02326,0.142627 -0.08217,0.241846 -0.05891,0.09922 -0.167432,0.151929 -0.10697,0.05116 -0.274401,0.05116 z m -0.0016,-0.31936 q 0.04496,0 0.07906,-0.0124 0.03411,-0.01395 0.05736,-0.05736 0.02481,-0.04496 0.03566,-0.133325 0.0124,-0.08837 0.0124,-0.238746 V 89.37328 q 0,-0.176733 -0.02325,-0.257348 -0.02325,-0.08061 -0.06511,-0.10232 -0.04186,-0.02325 -0.09612,-0.02325 -0.05271,0 -0.09612,0.0217 -0.04186,0.02015 -0.06666,0.100769 -0.02481,0.08061 -0.02481,0.258899 v 1.330151 q 0,0.151929 0.01085,0.240296 0.01085,0.08837 0.03411,0.131775 0.02481,0.04341 0.05891,0.05736 0.03566,0.0124 0.08372,0.0124 z m 1.039524,0.286804 v -2.251025 q -0.03721,0.04341 -0.10387,0.07751 -0.06511,0.03256 -0.137976,0.05116 -0.07286,0.01705 -0.130224,0.01705 v -0.283703 q 0.08216,-0.0124 0.173632,-0.05271 0.09147,-0.04186 0.168982,-0.113172 0.07906,-0.07131 0.122473,-0.173632 h 0.279053 v 2.728515 z m 0.70466,0 v -2.728515 h 0.568958 q 0.21084,0 0.333313,0.08682 0.122473,0.08527 0.175183,0.246497 0.05271,0.15968 0.05271,0.386022 l 0.0016,1.21543 q 0,0.271301 -0.05736,0.448035 -0.05581,0.176733 -0.182934,0.261999 -0.125574,0.08372 -0.334864,0.08372 z m 0.373621,-0.294556 h 0.148828 q 0.07906,0 0.131775,-0.03256 0.05271,-0.03411 0.07751,-0.120923 0.02636,-0.08837 0.02636,-0.252697 V 89.42289 q 0,-0.230994 -0.05581,-0.330213 -0.05581,-0.100769 -0.187586,-0.100769 h -0.141076 z"
         id="text1-1-0"
         style="font-size:3.175px;line-height:1.25;font-family:Antonio;-inkscape-font-specification:'Antonio, @wght=624';font-variation-settings:'wght' 624;letter-spacing:-0.185208px;stroke-width:0.162943"
         aria-label="03-1701D" /><path
         d="m 10.165138,97.853036 q -0.223242,0 -0.3441648,-0.09147 -0.1193726,-0.09147 -0.1658813,-0.26355 -0.044958,-0.172082 -0.044958,-0.413928 v -1.303796 q 0,-0.235645 0.048059,-0.395325 0.048059,-0.16123 0.1674317,-0.241846 0.1209228,-0.08217 0.3395144,-0.08217 0.218592,0 0.337964,0.08217 0.119373,0.08062 0.164331,0.241846 0.04651,0.15968 0.04651,0.395325 v 1.303796 q 0,0.181384 -0.0248,0.324011 -0.02325,0.142627 -0.08216,0.241846 -0.05891,0.09922 -0.167432,0.151929 -0.10697,0.05116 -0.274402,0.05116 z m -0.0015,-0.31936 q 0.04496,0 0.07906,-0.0124 0.03411,-0.01395 0.05736,-0.05736 0.0248,-0.04496 0.03566,-0.133325 0.0124,-0.08837 0.0124,-0.238745 v -1.328601 q 0,-0.176734 -0.02325,-0.257349 -0.02325,-0.08061 -0.06511,-0.102319 -0.04186,-0.02326 -0.09612,-0.02326 -0.05271,0 -0.09612,0.0217 -0.04186,0.02015 -0.06666,0.100769 -0.024805,0.08062 -0.024805,0.258899 v 1.330152 q 0,0.151928 0.010852,0.240295 0.010852,0.08837 0.034107,0.131775 0.02481,0.04341 0.05891,0.05736 0.03566,0.0124 0.08372,0.0124 z m 1.34028,0.286804 v -0.496093 h -0.660425 v -0.269751 l 0.603064,-1.962671 h 0.392225 v 1.933215 h 0.217041 v 0.299207 h -0.217041 v 0.496093 z m -0.364319,-0.7953 h 0.364319 v -1.379761 z m 0.931003,-0.299206 v -0.251148 h 0.722437 v 0.251148 z m 1.484458,1.127062 q -0.223242,0 -0.344165,-0.09147 -0.119373,-0.09147 -0.165882,-0.26355 -0.04496,-0.172082 -0.04496,-0.413928 v -1.303796 q 0,-0.235645 0.04806,-0.395325 0.04806,-0.16123 0.167432,-0.241846 0.120923,-0.08217 0.339514,-0.08217 0.218591,0 0.337964,0.08217 0.119372,0.08062 0.164331,0.241846 0.04651,0.15968 0.04651,0.395325 v 1.303796 q 0,0.181384 -0.02481,0.324011 -0.02325,0.142627 -0.08217,0.241846 -0.05891,0.09922 -0.167431,0.151929 -0.106971,0.05116 -0.274402,0.05116 z m -0.0015,-0.31936 q 0.04496,0 0.07906,-0.0124 0.03411,-0.01395 0.05736,-0.05736 0.0248,-0.04496 0.03566,-0.133325 0.0124,-0.08837 0.0124,-0.238745 v -1.328601 q 0,-0.176734 -0.02325,-0.257349 -0.02325,-0.08061 -0.06511,-0.102319 -0.04186,-0.02326 -0.09612,-0.02326 -0.05271,0 -0.09612,0.0217 -0.04186,0.02015 -0.06666,0.100769 -0.02481,0.08062 -0.02481,0.258899 v 1.330152 q 0,0.151928 0.01085,0.240295 0.01085,0.08837 0.03411,0.131775 0.0248,0.04341 0.05891,0.05736 0.03566,0.0124 0.08372,0.0124 z m 0.868991,0.286804 q 0.0279,-0.37362 0.09302,-0.702282 0.06511,-0.330213 0.148829,-0.617017 0.08527,-0.286804 0.168981,-0.53175 0.07442,-0.243396 0.128675,-0.389124 0.05581,-0.145727 0.06201,-0.167432 H 14.24737 v -0.32091 h 1.153418 v 0.269751 q -0.0093,0.08992 -0.09302,0.293005 -0.08216,0.201538 -0.170532,0.497644 -0.06821,0.223242 -0.131775,0.488342 -0.06356,0.26355 -0.111621,0.561206 -0.04651,0.296106 -0.06821,0.618567 z m 1.39299,0 v -2.251025 q -0.03721,0.04341 -0.10387,0.07751 -0.06511,0.03256 -0.137976,0.05116 -0.07286,0.01705 -0.130224,0.01705 v -0.283704 q 0.08216,-0.0124 0.173632,-0.05271 0.09147,-0.04186 0.168982,-0.113171 0.07906,-0.07131 0.122474,-0.173633 h 0.279052 v 2.728515 z m 1.166648,0.03101 q -0.170533,0 -0.282154,-0.06666 -0.111621,-0.06666 -0.167431,-0.218592 -0.05426,-0.151928 -0.05426,-0.406176 v -0.139527 h 0.344165 v 0.06821 q 0,0.184485 0.01395,0.280603 0.01395,0.09612 0.05426,0.130225 0.04186,0.03411 0.117823,0.03411 0.08371,0 0.116272,-0.05116 0.03411,-0.05271 0.03876,-0.16123 0.0062,-0.110071 0.0062,-0.280603 v -0.31626 q -0.03876,0.02791 -0.10387,0.04806 -0.06511,0.02015 -0.148828,0.02015 -0.189135,0 -0.294555,-0.09302 -0.10387,-0.09302 -0.145728,-0.274402 -0.04031,-0.181385 -0.04031,-0.446485 v -0.09457 q 0,-0.189135 0.02015,-0.339514 0.0217,-0.151928 0.07906,-0.260449 0.05736,-0.10852 0.164331,-0.165881 0.108521,-0.05736 0.282154,-0.05736 0.179834,0 0.289904,0.05581 0.110071,0.05426 0.165882,0.159681 0.05736,0.10542 0.07751,0.260449 0.02015,0.153479 0.02015,0.350366 v 1.116211 q 0,0.302307 -0.05271,0.489893 -0.05116,0.186035 -0.173633,0.272851 -0.120922,0.08527 -0.327111,0.08527 z m -0.0047,-1.361157 q 0.05426,0 0.09457,-0.0124 0.04031,-0.0124 0.06511,-0.02791 0.02481,-0.0155 0.03256,-0.02325 v -0.623218 q 0,-0.217041 -0.03566,-0.31781 -0.03566,-0.100769 -0.148828,-0.100769 -0.08216,0 -0.124023,0.04341 -0.04031,0.04341 -0.05581,0.134876 -0.01395,0.09147 -0.01395,0.235644 v 0.226343 q 0,0.168982 0.0124,0.271301 0.01395,0.10232 0.05426,0.148829 0.04031,0.04496 0.119373,0.04496 z m 1.262766,1.362707 q -0.286805,0 -0.424781,-0.168981 -0.137976,-0.168982 -0.139526,-0.522449 v -0.161231 q -0.0015,-0.142627 0.02481,-0.272851 0.02791,-0.131775 0.07906,-0.232544 0.05271,-0.102319 0.125573,-0.151929 -0.116272,-0.08372 -0.167431,-0.240295 -0.04961,-0.15813 -0.04961,-0.362769 0,-0.356567 0.127124,-0.517798 0.127124,-0.16123 0.426331,-0.16123 0.302307,0 0.42478,0.15968 0.124024,0.15813 0.124024,0.519348 0,0.207739 -0.04806,0.364319 -0.04651,0.155029 -0.165882,0.237195 0.07131,0.04961 0.119373,0.153479 0.04806,0.102319 0.07286,0.234094 0.0248,0.130225 0.0248,0.271301 v 0.151929 q 0,0.359668 -0.133325,0.5302 -0.131775,0.170532 -0.420129,0.170532 z m 0.0016,-0.31781 q 0.08372,0 0.120923,-0.03876 0.03876,-0.04031 0.04806,-0.128674 0.01085,-0.08837 0.01085,-0.230994 V 96.96627 q 0,-0.238745 -0.04496,-0.358118 -0.04496,-0.119372 -0.134875,-0.119372 -0.08527,0 -0.139526,0.119372 -0.05426,0.117823 -0.05426,0.361219 v 0.173632 q 0,0.21084 0.03256,0.302307 0.03411,0.08992 0.161231,0.08992 z m -0.0031,-1.297595 q 0.05581,0 0.09612,-0.03876 0.04186,-0.03876 0.06511,-0.141077 0.02481,-0.102319 0.02481,-0.291455 0,-0.186035 -0.02015,-0.272851 -0.02015,-0.08682 -0.06046,-0.113172 -0.04031,-0.02635 -0.10542,-0.02635 -0.06201,0 -0.103869,0.03101 -0.04031,0.02946 -0.06046,0.117822 -0.0186,0.08837 -0.0186,0.266651 0,0.189136 0.0217,0.291455 0.0217,0.100769 0.06201,0.139526 0.04186,0.03721 0.09922,0.03721 z m 1.307724,1.582849 V 97.324391 H 18.886055 V 97.05464 l 0.603064,-1.962671 h 0.392224 v 1.933215 h 0.217041 v 0.299207 h -0.217041 v 0.496093 z m -0.364318,-0.7953 h 0.364318 v -1.379761 z"
         id="text1-1-04"
         style="font-size:3.175px;line-height:1.25;font-family:Antonio;-inkscape-font-specification:'Antonio, @wght=624';font-variation-settings:'wght' 624;letter-spacing:-0.185208px;stroke-width:0.162943"
         aria-label="04-071984" /><path
         d="m 10.233351,133.87307 q -0.223242,0 -0.3441653,-0.0915 -0.1193725,-0.0915 -0.1658813,-0.26355 -0.044958,-0.17208 -0.044958,-0.41392 v -1.3038 q 0,-0.23564 0.048059,-0.39533 0.048059,-0.16123 0.1674317,-0.24184 0.1209229,-0.0822 0.3395149,-0.0822 0.218591,0 0.337964,0.0822 0.119372,0.0806 0.164331,0.24184 0.04651,0.15969 0.04651,0.39533 v 1.3038 q 0,0.18138 -0.0248,0.32401 -0.02326,0.14262 -0.08217,0.24184 -0.05891,0.0992 -0.167431,0.15193 -0.106971,0.0512 -0.274402,0.0512 z m -0.0016,-0.31936 q 0.04496,0 0.07906,-0.0124 0.03411,-0.014 0.05736,-0.0574 0.02481,-0.045 0.03566,-0.13333 0.0124,-0.0884 0.0124,-0.23874 v -1.3286 q 0,-0.17674 -0.02325,-0.25735 -0.02325,-0.0806 -0.06511,-0.10232 -0.04186,-0.0233 -0.09612,-0.0233 -0.05271,0 -0.09612,0.0217 -0.04186,0.0202 -0.06666,0.10077 -0.02481,0.0806 -0.02481,0.2589 v 1.33015 q 0,0.15193 0.01085,0.24029 0.01085,0.0884 0.03411,0.13178 0.0248,0.0434 0.05891,0.0574 0.03566,0.0124 0.08371,0.0124 z m 1.262766,0.31781 q -0.187585,0 -0.300757,-0.0698 -0.111621,-0.0698 -0.16278,-0.19224 -0.04961,-0.12247 -0.04961,-0.28215 v -0.32401 h 0.355017 v 0.30075 q 0,0.10697 0.02946,0.17829 0.02945,0.0713 0.128674,0.0713 0.08837,0 0.124024,-0.0651 0.03566,-0.0667 0.03566,-0.20154 v -0.74879 q 0,-0.14418 -0.03101,-0.22634 -0.02945,-0.0822 -0.125573,-0.0822 -0.07752,0 -0.122473,0.0682 -0.04496,0.0682 -0.04496,0.20929 l -0.327112,-0.0294 V 131.112 h 0.942578 v 0.33486 h -0.598413 v 0.59066 q 0.02791,-0.0543 0.100769,-0.0868 0.07286,-0.0326 0.15658,-0.0326 0.151929,0 0.241846,0.0868 0.08992,0.0853 0.128674,0.2806 0.04031,0.19379 0.04031,0.51935 v 0.0574 q 0,0.25425 -0.0155,0.44338 -0.01395,0.18914 -0.06511,0.31626 -0.04961,0.12558 -0.155029,0.18759 -0.10387,0.062 -0.285254,0.062 z m 0.644199,-1.12551 v -0.25115 h 0.722436 v 0.25115 z m 1.484457,1.12706 q -0.223242,0 -0.344165,-0.0915 -0.119372,-0.0915 -0.165881,-0.26355 -0.04496,-0.17208 -0.04496,-0.41392 v -1.3038 q 0,-0.23564 0.04806,-0.39533 0.04806,-0.16123 0.167431,-0.24184 0.120923,-0.0822 0.339514,-0.0822 0.218592,0 0.337964,0.0822 0.119373,0.0806 0.164331,0.24184 0.04651,0.15969 0.04651,0.39533 v 1.3038 q 0,0.18138 -0.02481,0.32401 -0.02325,0.14262 -0.08216,0.24184 -0.05891,0.0992 -0.167432,0.15193 -0.10697,0.0512 -0.274402,0.0512 z m -0.0015,-0.31936 q 0.04496,0 0.07906,-0.0124 0.03411,-0.014 0.05736,-0.0574 0.0248,-0.045 0.03566,-0.13333 0.0124,-0.0884 0.0124,-0.23874 v -1.3286 q 0,-0.17674 -0.02325,-0.25735 -0.02325,-0.0806 -0.06511,-0.10232 -0.04186,-0.0233 -0.09612,-0.0233 -0.05271,0 -0.09612,0.0217 -0.04186,0.0202 -0.06666,0.10077 -0.0248,0.0806 -0.0248,0.2589 v 1.33015 q 0,0.15193 0.01085,0.24029 0.01085,0.0884 0.03411,0.13178 0.02481,0.0434 0.05891,0.0574 0.03566,0.0124 0.08372,0.0124 z m 1.256565,0.31936 q -0.286805,0 -0.424781,-0.16898 -0.137976,-0.16898 -0.139526,-0.52245 v -0.16123 q -0.0015,-0.14263 0.02481,-0.27285 0.02791,-0.13178 0.07906,-0.23255 0.05271,-0.10231 0.125573,-0.15192 -0.116272,-0.0837 -0.167431,-0.2403 -0.04961,-0.15813 -0.04961,-0.36277 0,-0.35657 0.127124,-0.5178 0.127124,-0.16123 0.426331,-0.16123 0.302307,0 0.42478,0.15968 0.124024,0.15813 0.124024,0.51935 0,0.20774 -0.04806,0.36432 -0.04651,0.15503 -0.165881,0.2372 0.07131,0.0496 0.119373,0.15347 0.04806,0.10232 0.07286,0.2341 0.02481,0.13022 0.02481,0.2713 v 0.15193 q 0,0.35967 -0.133325,0.5302 -0.131775,0.17053 -0.420129,0.17053 z m 0.0015,-0.31781 q 0.08372,0 0.120923,-0.0388 0.03876,-0.0403 0.04806,-0.12867 0.01085,-0.0884 0.01085,-0.23099 v -0.17054 q 0,-0.23874 -0.04496,-0.35811 -0.04496,-0.11938 -0.134875,-0.11938 -0.08527,0 -0.139527,0.11938 -0.05426,0.11782 -0.05426,0.36121 v 0.17364 q 0,0.21084 0.03256,0.3023 0.03411,0.0899 0.161231,0.0899 z m -0.0031,-1.29759 q 0.05581,0 0.09612,-0.0388 0.04186,-0.0388 0.06511,-0.14108 0.0248,-0.10232 0.0248,-0.29145 0,-0.18604 -0.02015,-0.27285 -0.02015,-0.0868 -0.06046,-0.11318 -0.04031,-0.0264 -0.10542,-0.0264 -0.06201,0 -0.103869,0.031 -0.04031,0.0295 -0.06046,0.11783 -0.0186,0.0884 -0.0186,0.26665 0,0.18913 0.0217,0.29145 0.0217,0.10077 0.06201,0.13953 0.04186,0.0372 0.09922,0.0372 z m 1.006967,1.58285 v -2.25103 q -0.03721,0.0434 -0.103869,0.0775 -0.06511,0.0326 -0.137976,0.0512 -0.07286,0.0171 -0.130225,0.0171 v -0.28371 q 0.08217,-0.0124 0.173633,-0.0527 0.09147,-0.0418 0.168982,-0.11317 0.07906,-0.0713 0.122473,-0.17363 h 0.279053 v 2.72852 z m 1.166648,0.031 q -0.170532,0 -0.282153,-0.0667 -0.111621,-0.0667 -0.167432,-0.21859 -0.05426,-0.15193 -0.05426,-0.40618 v -0.13953 h 0.344165 v 0.0682 q 0,0.18448 0.01395,0.2806 0.01395,0.0961 0.05426,0.13022 0.04186,0.0341 0.117822,0.0341 0.08372,0 0.116272,-0.0512 0.03411,-0.0527 0.03876,-0.16123 0.0062,-0.11007 0.0062,-0.2806 v -0.31626 q -0.03876,0.0279 -0.10387,0.0481 -0.06511,0.0202 -0.148828,0.0202 -0.189136,0 -0.294556,-0.093 -0.10387,-0.093 -0.145727,-0.2744 -0.04031,-0.18138 -0.04031,-0.44648 v -0.0946 q 0,-0.18914 0.02015,-0.33951 0.0217,-0.15193 0.07906,-0.26045 0.05736,-0.10852 0.164331,-0.16589 0.10852,-0.0574 0.282153,-0.0574 0.179834,0 0.289905,0.0558 0.110071,0.0543 0.165881,0.15968 0.05736,0.10542 0.07751,0.26045 0.02015,0.15348 0.02015,0.35037 v 1.11621 q 0,0.30231 -0.05271,0.48989 -0.05116,0.18604 -0.173633,0.27285 -0.120923,0.0853 -0.327112,0.0853 z m -0.0047,-1.36116 q 0.05426,0 0.09457,-0.0124 0.04031,-0.0124 0.06511,-0.0279 0.02481,-0.0155 0.03256,-0.0233 v -0.62322 q 0,-0.21704 -0.03566,-0.31781 -0.03566,-0.10077 -0.148828,-0.10077 -0.08217,0 -0.124024,0.0434 -0.04031,0.0434 -0.05581,0.13488 -0.01395,0.0915 -0.01395,0.23564 v 0.22635 q 0,0.16898 0.0124,0.2713 0.01395,0.10232 0.05426,0.14883 0.04031,0.045 0.119372,0.045 z m 1.346482,1.33016 v -0.4961 H 17.73161 v -0.26975 l 0.603064,-1.96267 h 0.392224 v 1.93321 h 0.217041 v 0.29921 h -0.217041 v 0.4961 z m -0.364319,-0.79531 h 0.364319 v -1.37976 z m 1.521665,0.82786 q -0.223243,0 -0.344165,-0.0915 -0.119373,-0.0915 -0.165882,-0.26355 -0.04496,-0.17208 -0.04496,-0.41392 v -1.3038 q 0,-0.23564 0.04806,-0.39533 0.04806,-0.16123 0.167431,-0.24184 0.120923,-0.0822 0.339515,-0.0822 0.218591,0 0.337963,0.0822 0.119373,0.0806 0.164331,0.24184 0.04651,0.15969 0.04651,0.39533 v 1.3038 q 0,0.18138 -0.0248,0.32401 -0.02325,0.14262 -0.08217,0.24184 -0.05891,0.0992 -0.167432,0.15193 -0.10697,0.0512 -0.274401,0.0512 z m -0.0016,-0.31936 q 0.04496,0 0.07906,-0.0124 0.03411,-0.014 0.05736,-0.0574 0.0248,-0.045 0.03566,-0.13333 0.0124,-0.0884 0.0124,-0.23874 v -1.3286 q 0,-0.17674 -0.02325,-0.25735 -0.02325,-0.0806 -0.06511,-0.10232 -0.04186,-0.0233 -0.09612,-0.0233 -0.05271,0 -0.09612,0.0217 -0.04186,0.0202 -0.06666,0.10077 -0.02481,0.0806 -0.02481,0.2589 v 1.33015 q 0,0.15193 0.01085,0.24029 0.01085,0.0884 0.03411,0.13178 0.02481,0.0434 0.05891,0.0574 0.03566,0.0124 0.08372,0.0124 z"
         id="text1-1-52"
         style="font-size:3.175px;line-height:1.25;font-family:Antonio;-inkscape-font-specification:'Antonio, @wght=624';font-variation-settings:'wght' 624;letter-spacing:-0.185208px;stroke-width:0.162943"
         aria-label="05-081940" /><path
         d="m 10.217848,139.41308 q -0.2232424,0 -0.3441652,-0.0915 -0.1193726,-0.0915 -0.1658814,-0.26355 -0.044958,-0.17208 -0.044958,-0.41393 v -1.30379 q 0,-0.23565 0.048059,-0.39533 0.048059,-0.16123 0.1674317,-0.24184 0.1209228,-0.0822 0.3395139,-0.0822 0.218591,0 0.337964,0.0822 0.119372,0.0806 0.164331,0.24184 0.04651,0.15968 0.04651,0.39533 v 1.30379 q 0,0.18139 -0.02481,0.32402 -0.02326,0.14262 -0.08217,0.24184 -0.05891,0.0992 -0.167431,0.15193 -0.106971,0.0512 -0.274402,0.0512 z m -0.0015,-0.31936 q 0.04496,0 0.07906,-0.0124 0.03411,-0.014 0.05736,-0.0574 0.02481,-0.045 0.03566,-0.13333 0.0124,-0.0884 0.0124,-0.23874 v -1.32861 q 0,-0.17673 -0.02325,-0.25734 -0.02325,-0.0806 -0.06511,-0.10232 -0.04186,-0.0233 -0.09612,-0.0233 -0.05271,0 -0.09612,0.0217 -0.04186,0.0202 -0.06666,0.10077 -0.0248,0.0806 -0.0248,0.25889 v 1.33016 q 0,0.15192 0.01085,0.24029 0.01085,0.0884 0.03411,0.13178 0.0248,0.0434 0.05891,0.0574 0.03566,0.0124 0.08372,0.0124 z m 1.293771,0.31936 q -0.179834,0 -0.293005,-0.0558 -0.113172,-0.0574 -0.175183,-0.16433 -0.06046,-0.10697 -0.08372,-0.2589 -0.0217,-0.15348 -0.0217,-0.34727 v -1.13326 q 0,-0.30386 0.05581,-0.48679 0.05581,-0.18294 0.181385,-0.26355 0.125573,-0.0822 0.331762,-0.0822 0.176734,0 0.286804,0.0667 0.110071,0.0667 0.161231,0.22015 0.05116,0.15193 0.05271,0.40617 v 0.13643 h -0.342615 v -0.0682 q 0,-0.17829 -0.0124,-0.27286 -0.01085,-0.0961 -0.04961,-0.13177 -0.03876,-0.0357 -0.117822,-0.0357 -0.08372,0 -0.122473,0.0481 -0.03721,0.0481 -0.04806,0.15503 -0.01085,0.10542 -0.01085,0.28215 v 0.35657 q 0.04341,-0.0481 0.119372,-0.0775 0.07597,-0.0295 0.165882,-0.031 0.187585,-0.002 0.288354,0.0899 0.100769,0.0915 0.139527,0.2744 0.04031,0.18138 0.04031,0.45269 v 0.12247 q 0,0.25115 -0.04186,0.43098 -0.04186,0.17828 -0.15968,0.27285 -0.116272,0.0946 -0.344165,0.0946 z m -0.0047,-0.32401 q 0.08217,0 0.124024,-0.0372 0.04341,-0.0372 0.05736,-0.12247 0.0155,-0.0868 0.0155,-0.2341 v -0.23409 q 0,-0.17208 -0.01395,-0.27595 -0.01395,-0.10387 -0.05581,-0.15038 -0.04031,-0.0465 -0.119372,-0.0465 -0.05736,0 -0.10387,0.0202 -0.04651,0.0186 -0.07441,0.045 -0.0279,0.0264 -0.03256,0.0481 v 0.56741 q 0,0.14573 0.01705,0.23874 0.0186,0.093 0.06201,0.13798 0.04496,0.0434 0.124023,0.0434 z m 0.617844,-0.80305 v -0.25115 h 0.722436 v 0.25115 z m 1.484457,1.12706 q -0.223242,0 -0.344165,-0.0915 -0.119372,-0.0915 -0.165881,-0.26355 -0.04496,-0.17208 -0.04496,-0.41393 v -1.30379 q 0,-0.23565 0.04806,-0.39533 0.04806,-0.16123 0.167431,-0.24184 0.120923,-0.0822 0.339514,-0.0822 0.218592,0 0.337964,0.0822 0.119373,0.0806 0.164331,0.24184 0.04651,0.15968 0.04651,0.39533 v 1.30379 q 0,0.18139 -0.02481,0.32402 -0.02325,0.14262 -0.08216,0.24184 -0.05891,0.0992 -0.167432,0.15193 -0.10697,0.0512 -0.274402,0.0512 z m -0.0015,-0.31936 q 0.04496,0 0.07906,-0.0124 0.03411,-0.014 0.05736,-0.0574 0.02481,-0.045 0.03566,-0.13333 0.0124,-0.0884 0.0124,-0.23874 v -1.32861 q 0,-0.17673 -0.02325,-0.25734 -0.02326,-0.0806 -0.06511,-0.10232 -0.04186,-0.0233 -0.09612,-0.0233 -0.05271,0 -0.09612,0.0217 -0.04186,0.0202 -0.06666,0.10077 -0.0248,0.0806 -0.0248,0.25889 v 1.33016 q 0,0.15192 0.01085,0.24029 0.01085,0.0884 0.03411,0.13178 0.0248,0.0434 0.05891,0.0574 0.03566,0.0124 0.08372,0.0124 z m 1.256565,0.31936 q -0.286805,0 -0.424781,-0.16898 -0.137976,-0.16898 -0.139526,-0.52245 v -0.16123 q -0.0015,-0.14263 0.02481,-0.27285 0.0279,-0.13178 0.07906,-0.23255 0.05271,-0.10232 0.125573,-0.15193 -0.116272,-0.0837 -0.167431,-0.24029 -0.04961,-0.15813 -0.04961,-0.36277 0,-0.35657 0.127124,-0.5178 0.127124,-0.16123 0.426331,-0.16123 0.302307,0 0.42478,0.15968 0.124024,0.15813 0.124024,0.51935 0,0.20774 -0.04806,0.36432 -0.04651,0.15503 -0.165882,0.23719 0.07131,0.0496 0.119373,0.15348 0.04806,0.10232 0.07286,0.2341 0.0248,0.13022 0.0248,0.2713 v 0.15193 q 0,0.35967 -0.133325,0.5302 -0.131775,0.17053 -0.420129,0.17053 z m 0.0015,-0.31781 q 0.08372,0 0.120923,-0.0388 0.03876,-0.0403 0.04806,-0.12867 0.01085,-0.0884 0.01085,-0.231 v -0.17053 q 0,-0.23874 -0.04496,-0.35812 -0.04496,-0.11937 -0.134875,-0.11937 -0.08527,0 -0.139526,0.11937 -0.05426,0.11783 -0.05426,0.36122 v 0.17364 q 0,0.21084 0.03256,0.3023 0.03411,0.0899 0.161231,0.0899 z m -0.0031,-1.2976 q 0.05581,0 0.09612,-0.0388 0.04186,-0.0388 0.06511,-0.14108 0.02481,-0.10232 0.02481,-0.29145 0,-0.18604 -0.02015,-0.27286 -0.02015,-0.0868 -0.06046,-0.11317 -0.04031,-0.0264 -0.10542,-0.0264 -0.06201,0 -0.103869,0.031 -0.04031,0.0295 -0.06046,0.11783 -0.0186,0.0884 -0.0186,0.26665 0,0.18913 0.0217,0.29145 0.0217,0.10077 0.06201,0.13953 0.04186,0.0372 0.09922,0.0372 z m 1.006968,1.58285 v -2.25102 q -0.03721,0.0434 -0.10387,0.0775 -0.06511,0.0326 -0.137976,0.0512 -0.07286,0.0171 -0.130225,0.0171 v -0.28371 q 0.08217,-0.0124 0.173633,-0.0527 0.09147,-0.0419 0.168982,-0.11317 0.07906,-0.0713 0.122473,-0.17363 h 0.279053 v 2.72851 z m 1.166647,0.031 q -0.170532,0 -0.282153,-0.0667 -0.111621,-0.0667 -0.167432,-0.21859 -0.05426,-0.15193 -0.05426,-0.40618 v -0.13953 h 0.344165 v 0.0682 q 0,0.18448 0.01395,0.2806 0.01395,0.0961 0.05426,0.13022 0.04186,0.0341 0.117822,0.0341 0.08372,0 0.116272,-0.0512 0.03411,-0.0527 0.03876,-0.16123 0.0062,-0.11007 0.0062,-0.2806 v -0.31626 q -0.03876,0.0279 -0.10387,0.0481 -0.06511,0.0202 -0.148828,0.0202 -0.189136,0 -0.294556,-0.093 -0.103869,-0.093 -0.145727,-0.2744 -0.04031,-0.18138 -0.04031,-0.44648 v -0.0946 q 0,-0.18914 0.02015,-0.33952 0.0217,-0.15193 0.07906,-0.26045 0.05736,-0.10852 0.164331,-0.16588 0.10852,-0.0574 0.282153,-0.0574 0.179834,0 0.289905,0.0558 0.110071,0.0543 0.165881,0.15968 0.05736,0.10542 0.07752,0.26045 0.02015,0.15348 0.02015,0.35037 v 1.11621 q 0,0.30231 -0.05271,0.48989 -0.05116,0.18604 -0.173633,0.27285 -0.120923,0.0853 -0.327112,0.0853 z m -0.0047,-1.36116 q 0.05426,0 0.09457,-0.0124 0.04031,-0.0124 0.06511,-0.0279 0.02481,-0.0155 0.03256,-0.0233 v -0.62322 q 0,-0.21704 -0.03566,-0.31781 -0.03566,-0.10077 -0.148828,-0.10077 -0.08217,0 -0.124024,0.0434 -0.04031,0.0434 -0.05581,0.13488 -0.01395,0.0915 -0.01395,0.23564 v 0.22634 q 0,0.16899 0.0124,0.27131 0.01395,0.10232 0.05426,0.14882 0.04031,0.045 0.119372,0.045 z m 1.299973,1.36271 q -0.179834,0 -0.293005,-0.0558 -0.113171,-0.0574 -0.175183,-0.16433 -0.06046,-0.10697 -0.08372,-0.2589 -0.0217,-0.15348 -0.0217,-0.34727 v -1.13326 q 0,-0.30386 0.05581,-0.48679 0.05581,-0.18294 0.181385,-0.26355 0.125573,-0.0822 0.331762,-0.0822 0.176734,0 0.286805,0.0667 0.11007,0.0667 0.16123,0.22015 0.05116,0.15193 0.05271,0.40617 v 0.13643 h -0.342615 v -0.0682 q 0,-0.17829 -0.0124,-0.27286 -0.01085,-0.0961 -0.04961,-0.13177 -0.03876,-0.0357 -0.117823,-0.0357 -0.08372,0 -0.122473,0.0481 -0.03721,0.0481 -0.04806,0.15503 -0.01085,0.10542 -0.01085,0.28215 v 0.35657 q 0.04341,-0.0481 0.119373,-0.0775 0.07596,-0.0295 0.165881,-0.031 0.187585,-0.002 0.288354,0.0899 0.100769,0.0915 0.139527,0.2744 0.04031,0.18138 0.04031,0.45269 v 0.12247 q 0,0.25115 -0.04186,0.43098 -0.04186,0.17828 -0.15968,0.27285 -0.116272,0.0946 -0.344165,0.0946 z m -0.0047,-0.32401 q 0.08217,0 0.124024,-0.0372 0.04341,-0.0372 0.05736,-0.12247 0.0155,-0.0868 0.0155,-0.2341 v -0.23409 q 0,-0.17208 -0.01395,-0.27595 -0.01395,-0.10387 -0.05581,-0.15038 -0.04031,-0.0465 -0.119372,-0.0465 -0.05736,0 -0.10387,0.0202 -0.04651,0.0186 -0.07441,0.045 -0.02791,0.0264 -0.03256,0.0481 v 0.56741 q 0,0.14573 0.01705,0.23874 0.0186,0.093 0.06201,0.13798 0.04496,0.0434 0.124023,0.0434 z m 1.227109,0.32401 q -0.179834,0 -0.293005,-0.0558 -0.113172,-0.0574 -0.175183,-0.16433 -0.06046,-0.10697 -0.08372,-0.2589 -0.0217,-0.15348 -0.0217,-0.34727 v -1.13326 q 0,-0.30386 0.05581,-0.48679 0.05581,-0.18294 0.181385,-0.26355 0.125573,-0.0822 0.331762,-0.0822 0.176734,0 0.286804,0.0667 0.110071,0.0667 0.161231,0.22015 0.05116,0.15193 0.05271,0.40617 v 0.13643 h -0.342615 v -0.0682 q 0,-0.17829 -0.0124,-0.27286 -0.01085,-0.0961 -0.04961,-0.13177 -0.03876,-0.0357 -0.117822,-0.0357 -0.08372,0 -0.122473,0.0481 -0.03721,0.0481 -0.04806,0.15503 -0.01085,0.10542 -0.01085,0.28215 v 0.35657 q 0.04341,-0.0481 0.119372,-0.0775 0.07597,-0.0295 0.165882,-0.031 0.187585,-0.002 0.288354,0.0899 0.100769,0.0915 0.139527,0.2744 0.04031,0.18138 0.04031,0.45269 v 0.12247 q 0,0.25115 -0.04186,0.43098 -0.04186,0.17828 -0.15968,0.27285 -0.116272,0.0946 -0.344165,0.0946 z m -0.0047,-0.32401 q 0.08217,0 0.124024,-0.0372 0.04341,-0.0372 0.05736,-0.12247 0.0155,-0.0868 0.0155,-0.2341 v -0.23409 q 0,-0.17208 -0.01395,-0.27595 -0.01395,-0.10387 -0.05581,-0.15038 -0.04031,-0.0465 -0.119372,-0.0465 -0.05736,0 -0.10387,0.0202 -0.04651,0.0186 -0.07441,0.045 -0.02791,0.0264 -0.03256,0.0481 v 0.56741 q 0,0.14573 0.01705,0.23874 0.0186,0.093 0.06201,0.13798 0.04496,0.0434 0.124023,0.0434 z"
         id="text1-1-8"
         style="font-size:3.175px;line-height:1.25;font-family:Antonio;-inkscape-font-specification:'Antonio, @wght=624';font-variation-settings:'wght' 624;letter-spacing:-0.185208px;stroke-width:0.162943"
         aria-label="06-081966" /></g></g></svg>
